<svg width="19" height="18" viewBox="0 0 19 18" fill="none" xmlns="http://www.w3.org/2000/svg">
<path d="M16.2354 10.7644L15.3655 10.9819C15.2471 11.3816 15.0871 11.7671 14.8875 12.134L15.3493 12.9034C15.467 13.0994 15.4361 13.3505 15.2743 13.512L13.8654 14.9209C13.7038 15.0822 13.4532 15.1131 13.2568 14.9959L12.4874 14.5342C12.1205 14.7339 11.7349 14.8937 11.3353 15.0121L11.1178 15.8821C11.0624 16.1036 10.8631 16.2593 10.6345 16.2593H8.64171C8.41308 16.2593 8.21381 16.1036 8.15833 15.882L7.94093 15.0121C7.54126 14.8937 7.15572 14.7338 6.78885 14.5342L6.01945 14.9958C5.82362 15.113 5.5723 15.0822 5.41083 14.9208L4.0019 13.5119C3.8401 13.3503 3.80918 13.0993 3.92695 12.9033L4.38867 12.1339C4.18895 11.767 4.02915 11.3815 3.91072 10.9818L3.04077 10.7643C2.81914 10.7089 2.66345 10.5096 2.66345 10.281V8.28823C2.66345 8.0596 2.81914 7.86033 3.04077 7.80485L3.91072 7.58733C4.02915 7.18767 4.18906 6.80213 4.38867 6.43526L3.92695 5.66586C3.80918 5.46981 3.8401 5.21871 4.0019 5.05724L5.41083 3.64831C5.57241 3.48673 5.82362 3.45514 6.01945 3.57336L6.78885 4.03508C7.15572 3.83536 7.54126 3.67556 7.94093 3.55713L8.15844 2.68718C8.21382 2.46566 8.41309 2.30997 8.64174 2.30997H10.6345C10.8631 2.30997 11.0624 2.46566 11.1179 2.68729L11.3354 3.55724C11.7351 3.67568 12.1206 3.83558 12.4875 4.03519L13.2569 3.57347C13.4535 3.45526 13.704 3.48684 13.8655 3.64842L15.2744 5.05736C15.4362 5.21894 15.4671 5.46992 15.3494 5.66597L14.8877 6.43538C15.0874 6.80224 15.2472 7.18779 15.3656 7.58745L16.2356 7.80496C16.4571 7.86034 16.6128 8.05962 16.6128 8.28826V10.281C16.6128 10.5097 16.4571 10.7089 16.2354 10.7644H16.2354ZM14.1218 5.54822C14.1218 5.41055 14.0104 5.29912 13.8727 5.29912C13.735 5.29912 13.6236 5.41055 13.6236 5.54822V6.30928C12.6848 5.04923 11.2288 4.30274 9.6381 4.30274C6.89106 4.30274 4.65621 6.53759 4.65621 9.28464C4.65621 9.42231 4.76763 9.53374 4.9053 9.53374C5.04297 9.53374 5.1544 9.42231 5.1544 9.28464C5.1544 6.81237 7.16583 4.80093 9.6381 4.80093C11.1467 4.80093 12.5222 5.546 13.358 6.79369H12.3781C12.2404 6.79369 12.129 6.90512 12.129 7.04279C12.129 7.18046 12.2404 7.29188 12.3781 7.29188H13.8727C14.0103 7.29188 14.1218 7.18046 14.1218 7.04279L14.1218 5.54822ZM7.64535 9.28464C7.64535 10.3852 8.53753 11.2774 9.6381 11.2774C10.7387 11.2774 11.6309 10.3852 11.6309 9.28464C11.6309 8.18407 10.7387 7.29188 9.6381 7.29188C8.53753 7.29188 7.64535 8.18407 7.64535 9.28464ZM14.3709 9.03555C14.2332 9.03555 14.1218 9.14697 14.1218 9.28464C14.1218 11.7569 12.1104 13.7683 9.6381 13.7683C8.12953 13.7683 6.75401 13.0233 5.91819 11.7756H6.89812C7.03579 11.7756 7.14721 11.6642 7.14721 11.5265C7.14721 11.3888 7.03579 11.2774 6.89812 11.2774H5.40355C5.26588 11.2774 5.15445 11.3888 5.15445 11.5265V13.0211C5.15445 13.1587 5.26588 13.2702 5.40355 13.2702C5.54122 13.2702 5.65264 13.1587 5.65264 13.0211V12.26C6.59143 13.52 8.04751 14.2665 9.63816 14.2665C12.3852 14.2665 14.6201 12.0317 14.6201 9.28464C14.6201 9.14697 14.5086 9.03555 14.371 9.03555H14.3709Z" fill="#E7E7E7"/>
<path d="M11.1326 9.28473C11.1326 8.45927 10.4635 7.79016 9.638 7.79016C8.81254 7.79016 8.14343 8.45927 8.14343 9.28473C8.14343 10.1102 8.81254 10.7793 9.638 10.7793C10.4635 10.7793 11.1326 10.1102 11.1326 9.28473Z" fill="#E7E7E7"/>
</svg>
