<svg width="19" height="19" viewBox="0 0 19 19" fill="none" xmlns="http://www.w3.org/2000/svg">
<path d="M12.1802 1.9171C12.6515 1.9171 13.0466 2.25349 13.1385 2.69927H13.9286C13.8308 1.82118 13.0838 1.13477 12.1804 1.13477C11.2748 1.13477 10.5279 1.82118 10.4321 2.69927H11.2222C11.312 2.25333 11.7069 1.9171 12.1802 1.9171H12.1802Z" fill="#E7E7E7"/>
<path d="M6.90013 5.82794V4.03467L4.71375 6.21902H6.5089C6.72402 6.21902 6.90013 6.04305 6.90013 5.82794Z" fill="#E7E7E7"/>
<path d="M14.7225 3.48152H13.9404V4.85039C13.9404 5.8204 13.1503 6.61035 12.1804 6.61035C11.2085 6.61035 10.4205 5.82026 10.4205 4.85039C10.4205 4.63336 10.5945 4.45931 10.8115 4.45931C11.0267 4.45931 11.2026 4.63337 11.2026 4.85039C11.2026 5.39017 11.6406 5.82818 12.1804 5.82818C12.7181 5.82818 13.1582 5.39017 13.1582 4.85039V3.48152H7.68256V5.82818C7.68256 6.47545 7.15452 7.0016 6.50914 7.0016H4.16248V17.5618C4.16248 17.7769 4.33654 17.9529 4.55356 17.9529H14.7226C14.9377 17.9529 15.1137 17.7769 15.1137 17.5618L15.1138 3.87267C15.1138 3.65755 14.9379 3.48145 14.7227 3.48145L14.7225 3.48152ZM7.09575 11.8905C7.09575 11.0164 7.53771 10.2458 8.2105 9.78831C8.00125 9.49885 7.87807 9.14486 7.87807 8.7617C7.87807 7.7917 8.6661 7.00174 9.63803 7.00174C10.608 7.00174 11.398 7.79184 11.398 8.7617C11.398 9.14503 11.2728 9.49899 11.0636 9.78831C11.7364 10.246 12.1803 11.0164 12.1803 11.8905V12.4772C12.1803 12.6924 12.0043 12.8683 11.7892 12.8683H7.48695C7.26992 12.8683 7.09587 12.6924 7.09587 12.4772L7.09575 11.8905ZM13.5492 16.7795H5.72684C5.50981 16.7795 5.33576 16.6035 5.33576 16.3884C5.33576 16.1714 5.50982 15.9973 5.72684 15.9973H13.5492C13.7643 15.9973 13.9403 16.1714 13.9403 16.3884C13.9403 16.6035 13.7643 16.7795 13.5492 16.7795ZM13.5492 14.8239H5.72684C5.50981 14.8239 5.33576 14.6479 5.33576 14.4328C5.33576 14.2158 5.50982 14.0417 5.72684 14.0417H13.5492C13.7643 14.0417 13.9403 14.2158 13.9403 14.4328C13.9403 14.648 13.7643 14.8239 13.5492 14.8239Z" fill="#E7E7E7"/>
<path d="M11.398 11.8907C11.398 11.2082 11.0069 10.6176 10.4397 10.3262C10.1993 10.4493 9.92738 10.5218 9.63792 10.5218C9.34846 10.5218 9.07674 10.4495 8.83418 10.3262C8.26713 10.6175 7.87793 11.2082 7.87793 11.8907V12.0863H11.398L11.398 11.8907Z" fill="#E7E7E7"/>
<path d="M10.6157 8.76148C10.6157 9.3014 10.178 9.73928 9.63795 9.73928C9.09789 9.73928 8.66016 9.3014 8.66016 8.76148C8.66016 8.22143 9.09789 7.78369 9.63795 7.78369C10.178 7.78369 10.6157 8.22143 10.6157 8.76148Z" fill="#E7E7E7"/>
</svg>
