<svg width="19" height="19" viewBox="0 0 19 19" fill="none" xmlns="http://www.w3.org/2000/svg">
<path d="M15.0436 3.10693H13.373V4.40139C13.373 4.81612 13.053 5.18329 12.6354 5.18929H7.88724C7.46669 5.18638 7.126 4.84279 7.12894 4.4221L7.13492 3.10693H5.4702C5.02008 3.10693 4.65271 3.47429 4.65271 3.92443V16.2022C4.65271 16.6494 5.02007 17.0197 5.4702 17.0197H15.0435C15.4938 17.0197 15.861 16.6494 15.861 16.2022V3.92443C15.861 3.47431 15.4937 3.10693 15.0435 3.10693H15.0436ZM14.6555 13.7468H5.85842C5.69543 13.7468 5.56221 13.6136 5.56221 13.4506C5.56221 13.2876 5.69544 13.1544 5.85842 13.1544H6.66409V8.94244C6.66409 8.77945 6.79441 8.64622 6.9603 8.64622H8.24587C8.41176 8.64622 8.54208 8.77945 8.54208 8.94244V13.1544H9.3182V10.6219C9.3182 10.456 9.45143 10.3257 9.61441 10.3257H10.9029C11.0659 10.3257 11.1991 10.456 11.1991 10.6219V13.1544H11.9752L11.9751 7.79023C11.9751 7.62433 12.1083 7.49402 12.2713 7.49402H13.5569C13.7198 7.49402 13.8531 7.62434 13.8531 7.79023V13.1544H14.6558C14.8188 13.1544 14.9521 13.2876 14.9521 13.4506C14.9519 13.6136 14.8185 13.7468 14.6557 13.7468H14.6555Z" fill="#E7E7E7"/>
<path d="M7.88717 4.595H12.6266C12.7302 4.595 12.8249 4.54472 12.8783 4.45579C12.9346 4.36994 12.9375 4.26031 12.8932 4.16847L12.0105 2.37341C11.9603 2.27268 11.8564 2.20752 11.7439 2.20752L8.76999 2.20769C8.65746 2.20769 8.55382 2.27285 8.50337 2.37358L7.62072 4.16864C7.57626 4.26048 7.57934 4.37011 7.6356 4.45596C7.68879 4.54472 7.78354 4.595 7.88735 4.595H7.88717Z" fill="#E7E7E7"/>
</svg>
