<svg width="19" height="19" viewBox="0 0 19 19" fill="none" xmlns="http://www.w3.org/2000/svg">
<path fill-rule="evenodd" clip-rule="evenodd" d="M9.21902 13.8393C9.21902 14.1693 9.35918 14.4864 9.6082 14.7198C9.85723 14.9533 10.1954 15.0847 10.5474 15.0847H14.5325C14.8845 15.0847 15.2226 14.9533 15.4717 14.7198C15.7207 14.4864 15.8609 14.1693 15.8609 13.8393V11.3486C15.8609 11.0186 15.7207 10.7015 15.4717 10.4681C15.2226 10.2346 14.8845 10.1032 14.5325 10.1032H10.5474C10.1954 10.1032 9.85722 10.2346 9.6082 10.4681C9.35917 10.7015 9.21902 11.0186 9.21902 11.3486V13.8393ZM6.56219 10.1033H5.23378C4.88165 10.1033 4.5436 10.2347 4.29458 10.4682C4.04541 10.7017 3.9054 11.0187 3.9054 11.3487V13.8394C3.9054 14.1694 4.04543 14.4865 4.29458 14.7199C4.54361 14.9534 4.88165 15.0848 5.23378 15.0848H6.56219C6.91418 15.0848 7.25223 14.9534 7.50139 14.7199C7.75042 14.4865 7.89057 14.1694 7.89057 13.8394V11.3487C7.89057 11.0187 7.7504 10.7017 7.50139 10.4682C7.25222 10.2347 6.91418 10.1033 6.56219 10.1033ZM15.8609 5.12181C15.8609 4.7917 15.7208 4.47478 15.4717 4.24132C15.2227 4.00773 14.8845 3.87646 14.5325 3.87646H5.23381C4.88169 3.87646 4.54363 4.00775 4.29461 4.24132C4.04545 4.47479 3.90543 4.7917 3.90543 5.12181V7.61258C3.90543 7.94256 4.04546 8.25949 4.29461 8.49307C4.54365 8.72654 4.88169 8.85792 5.23381 8.85792H14.5325C15.2665 8.85792 15.861 8.30064 15.861 7.61254L15.8609 5.12181Z" fill="#2ECC40"/>
</svg>
