<svg width="19" height="19" viewBox="0 0 19 19" fill="none" xmlns="http://www.w3.org/2000/svg">
<path d="M10.8035 4.64284H13.0286L10.5562 2.17041V4.39552C10.4945 4.51931 10.6181 4.64283 10.8035 4.64283L10.8035 4.64284Z" fill="#E7E7E7"/>
<path d="M6.35361 7.98092C6.41544 7.91909 6.47727 7.79544 6.47727 7.67192C6.47727 7.54826 6.41544 7.48643 6.35361 7.42474C6.29179 7.36291 6.16813 7.30109 5.98279 7.23926V8.1664C6.10644 8.10458 6.22997 8.04275 6.35361 7.98092Z" fill="#E7E7E7"/>
<path d="M5.30258 5.07568C5.11723 5.13751 4.99358 5.19934 4.93176 5.26117C4.80811 5.38482 4.80811 5.44665 4.80811 5.57017C4.80811 5.69382 4.86993 5.75565 4.93176 5.81735C4.99359 5.8793 5.11724 6.00283 5.30258 6.06466V5.07568Z" fill="#E7E7E7"/>
<path d="M10.68 7.30107H13.2143L13.2142 5.26129H10.8035C10.309 5.26129 9.8764 4.82864 9.8764 4.33414V1.98535H2.8301C2.3356 1.98535 1.90295 2.418 1.90295 2.9125V16.016C1.90295 16.5105 2.3356 16.9432 2.8301 16.9432H9.44362C9.25814 16.696 9.13462 16.3869 9.13462 16.016L9.13449 8.84589C9.13449 7.98057 9.81445 7.30074 10.6798 7.30074L10.68 7.30107ZM4.49896 6.80657C4.25178 6.68292 4.06631 6.55926 3.94264 6.37393C3.75728 6.18844 3.69546 5.94128 3.69546 5.63214C3.69546 5.26132 3.81911 4.95218 4.12811 4.64318C4.37528 4.396 4.80793 4.27235 5.30243 4.21053V3.46888H5.9824V4.21053C6.53871 4.27236 6.97136 4.39601 7.34219 4.64318L6.97136 5.44668C6.66223 5.26133 6.2914 5.13768 5.9824 5.07586V6.25019C6.2914 6.31201 6.53871 6.43567 6.7859 6.49736C7.03307 6.55919 7.15672 6.74454 7.34222 6.93001C7.46587 7.11549 7.5894 7.36265 7.5894 7.67166C7.5894 8.04248 7.46574 8.35162 7.15675 8.5988C6.90957 8.84598 6.47679 9.03145 5.98242 9.0933V9.83495L5.30246 9.83521V9.09356C4.99346 9.09356 4.6225 9.03173 4.37532 8.90808C4.12814 8.78442 3.81899 8.6609 3.63367 8.53725L4.00449 7.73375C4.18997 7.8574 4.37532 7.98093 4.62263 8.04275C4.86981 8.10458 5.11713 8.16641 5.36428 8.22824V7.1156C4.99346 6.99194 4.68445 6.86842 4.49896 6.80659V6.80657ZM8.20754 15.5217H4.31353C4.12805 15.5217 4.00452 15.3981 4.00452 15.2127C4.00452 15.0272 4.12818 14.9037 4.31353 14.9037H8.26913C8.45461 14.9037 8.57813 15.0274 8.57813 15.2127C8.51643 15.3363 8.39291 15.5217 8.20744 15.5217H8.20754ZM8.20754 13.9764H4.31353C4.12805 13.9764 4.00452 13.8528 4.00452 13.6674C4.00452 13.482 4.12818 13.3584 4.31353 13.3584H8.26913C8.45461 13.3584 8.57813 13.4821 8.57813 13.6674C8.51643 13.8529 8.39291 13.9764 8.20744 13.9764H8.20754ZM8.20754 12.493H4.31353C4.12805 12.493 4.00452 12.3693 4.00452 12.184C4.00452 11.9985 4.12818 11.875 4.31353 11.875H8.26913C8.45461 11.875 8.57813 11.9986 8.57813 12.184C8.57826 12.3695 8.39291 12.493 8.20744 12.493H8.20754Z" fill="#E7E7E7"/>
<path d="M16.4283 7.91895H10.68C10.1855 7.91895 9.75281 8.35159 9.75281 8.84609V16.0162C9.75281 16.5107 10.1855 16.9434 10.68 16.9434H16.4283C16.9228 16.9434 17.3554 16.5107 17.3554 16.0162V8.84609C17.3554 8.35159 16.9228 7.91895 16.4283 7.91895ZM11.916 16.1397H11.2979C11.1124 16.1397 10.9889 16.0161 10.9889 15.8307C10.9889 15.6453 11.1125 15.5217 11.2979 15.5217H11.916C12.1015 15.5217 12.225 15.6454 12.225 15.8307C12.225 16.0161 12.0397 16.1397 11.916 16.1397ZM11.916 14.5945H11.2979C11.1124 14.5945 10.9889 14.4708 10.9889 14.2855C10.9889 14.1 11.1125 13.9764 11.2979 13.9764H11.916C12.1015 13.9764 12.225 14.1001 12.225 14.2855C12.225 14.4708 12.0397 14.5945 11.916 14.5945ZM11.916 13.111H11.2979C11.1124 13.111 10.9889 12.9873 10.9889 12.802C10.9889 12.6165 11.1125 12.493 11.2979 12.493H11.916C12.1015 12.493 12.225 12.6166 12.225 12.802C12.225 12.9873 12.0397 13.111 11.916 13.111ZM13.8321 16.1397H13.214C13.0285 16.1397 12.905 16.0161 12.905 15.8307C12.905 15.6453 13.0287 15.5217 13.214 15.5217H13.8321C14.0176 15.5217 14.1411 15.6454 14.1411 15.8307C14.1411 16.0161 14.0176 16.1397 13.8321 16.1397ZM13.8321 14.5945H13.214C13.0285 14.5945 12.905 14.4708 12.905 14.2855C12.905 14.1 13.0287 13.9764 13.214 13.9764H13.8321C14.0176 13.9764 14.1411 14.1001 14.1411 14.2855C14.1411 14.4708 14.0176 14.5945 13.8321 14.5945ZM13.8321 13.111H13.214C13.0285 13.111 12.905 12.9873 12.905 12.802C12.905 12.6165 13.0287 12.493 13.214 12.493H13.8321C14.0176 12.493 14.1411 12.6166 14.1411 12.802C14.1411 12.9873 14.0176 13.111 13.8321 13.111ZM15.8101 16.1397H15.1919C15.0065 16.1397 14.8829 16.0161 14.8829 15.8307C14.8829 15.6453 15.0066 15.5217 15.1919 15.5217H15.8101C15.9956 15.5217 16.1191 15.6454 16.1191 15.8307C16.1191 16.0161 15.9954 16.1397 15.8101 16.1397ZM15.8101 14.5945H15.1919C15.0065 14.5945 14.8829 14.4708 14.8829 14.2855C14.8829 14.1 15.0066 13.9764 15.1919 13.9764H15.8101C15.9956 13.9764 16.1191 14.1001 16.1191 14.2855C16.1191 14.4708 15.9954 14.5945 15.8101 14.5945ZM15.8101 13.111H15.1919C15.0065 13.111 14.8829 12.9873 14.8829 12.802C14.8829 12.6165 15.0066 12.493 15.1919 12.493H15.8101C15.9956 12.493 16.1191 12.6166 16.1191 12.802C16.1191 12.9873 15.9954 13.111 15.8101 13.111ZM16.1191 10.7004C16.1191 11.0712 15.8101 11.3185 15.5009 11.3185H11.6069C11.2361 11.3185 10.9888 11.0713 10.9888 10.7004V9.83506C10.9888 9.46423 11.236 9.21691 11.6069 9.21691H15.5009C15.8718 9.21691 16.1191 9.52592 16.1191 9.83506V10.7004Z" fill="#E7E7E7"/>
</svg>
