<svg width="19" height="19" viewBox="0 0 19 19" fill="none" xmlns="http://www.w3.org/2000/svg">
<path d="M4.83573 6.69123C4.95783 7.17147 5.27528 7.22031 5.27528 7.22031C5.46249 8.39244 6.39856 9.30409 6.70787 9.51572C7.01718 9.7355 7.48929 9.6948 7.48929 9.6948C7.87186 9.6948 8.04279 9.6948 8.65327 9.19013C9.26375 8.68547 9.71958 7.23659 9.71958 7.23659C10.1754 7.27729 10.3626 6.48774 10.3626 6.12959C10.3626 5.77958 10.1184 5.73074 10.1184 5.73074C10.1184 5.73074 10.2324 5.1284 10.1184 4.36326C10.0045 3.59812 9.36143 2.75159 7.99395 2.5074C6.63461 2.2632 5.91018 3.00392 5.91018 3.00392C5.91018 3.00392 5.45435 2.99578 5.02294 3.64696C4.59154 4.29814 4.95783 5.77958 4.95783 5.77958C4.67293 5.91795 4.70549 6.21098 4.83573 6.69123Z" fill="#E7E7E7"/>
<path d="M11.1452 7.22817C11.2347 7.58632 11.4789 7.61888 11.4789 7.61888C11.6173 8.48983 12.3173 9.17357 12.5452 9.32823C12.7731 9.49102 13.1313 9.45846 13.1313 9.45846C13.4162 9.45846 13.5464 9.45846 13.9941 9.08403C14.4499 8.70961 14.7918 7.62702 14.7918 7.62702C15.1337 7.65958 15.272 7.06538 15.272 6.8049C15.272 6.54443 15.093 6.50373 15.093 6.50373C15.093 6.50373 15.1825 6.05605 15.093 5.48626C15.0034 4.91648 14.5232 4.28158 13.5139 4.10251C12.4964 3.92343 11.9592 4.4688 11.9592 4.4688C11.9592 4.4688 11.6173 4.46066 11.2998 4.94904C10.9824 5.43743 11.2429 6.54443 11.2429 6.54443C11.0231 6.65839 11.0475 6.87816 11.1452 7.22817Z" fill="#E7E7E7"/>
<path d="M16.3543 10.0529C16.1263 9.80058 15.4182 9.81686 15.1414 9.75988C14.8728 9.7029 14.4089 9.22266 14.4089 9.22266C14.2461 9.84128 13.1635 10.0855 13.1635 10.0855C13.1635 10.0855 12.0809 9.84128 11.9181 9.22266C11.9181 9.22266 11.4541 9.69476 11.1855 9.75988C10.9332 9.81686 10.2983 9.80872 10.0297 10.0122C9.67152 9.825 9.22384 9.36917 9.22384 9.36917C9.00407 10.1994 7.55519 10.525 7.55519 10.525C7.55519 10.525 6.10631 10.1994 5.88654 9.36917C5.88654 9.36917 5.26792 10.0041 4.90163 10.0855C4.53534 10.1669 3.58299 10.1506 3.28182 10.4843C2.98065 10.818 2.26435 12.6658 1.9469 14.6844C1.9469 16.1659 13.1716 16.1659 13.1716 14.6844C13.1391 14.4647 13.0984 14.2367 13.0495 14.0251C15.1821 14.0332 17.3554 13.7565 17.3554 13.203C17.1194 11.6809 16.5822 10.3052 16.3543 10.0529Z" fill="#E7E7E7"/>
</svg>
