<svg width="19" height="19" viewBox="0 0 19 19" fill="none" xmlns="http://www.w3.org/2000/svg">
<path d="M3.15837 5.8696V5.09432C3.15837 4.5952 3.35276 4.11645 3.69891 3.76359C4.04495 3.41059 4.5143 3.21238 5.00389 3.21238H6.64998V4.41682C6.6532 4.62331 6.81657 4.78991 7.01919 4.79317C7.11702 4.79317 7.21087 4.75353 7.28013 4.6829C7.34939 4.61241 7.38826 4.51658 7.38826 4.41681V3.21238H11.3449V4.41681C11.3449 4.62462 11.5102 4.79317 11.714 4.79317C11.9179 4.79317 12.0832 4.62461 12.0832 4.41681V3.21238H13.7294H13.7293C14.2187 3.21238 14.6882 3.4106 15.0343 3.76358C15.3804 4.11644 15.5748 4.59519 15.5748 5.09431V5.8696L3.15837 5.8696ZM7.38822 2.77577C7.38822 2.67587 7.34934 2.58018 7.28009 2.50955C7.21083 2.43906 7.11698 2.39941 7.01915 2.39941C6.81523 2.39941 6.64994 2.56784 6.64994 2.77577V3.21238H7.38808L7.38822 2.77577ZM12.0831 2.77577C12.0831 2.56784 11.9178 2.39942 11.7139 2.39942C11.5101 2.39942 11.3448 2.56784 11.3448 2.77577V3.21238H12.0829L12.0831 2.77577ZM16.6082 14.5039H16.6081C16.6083 15.1529 16.3133 15.7652 15.8092 16.1615C15.3052 16.5577 14.6493 16.6929 14.0339 16.5276C13.4185 16.3622 12.9132 15.915 12.6662 15.3169C12.5585 15.0599 12.5033 14.7833 12.5037 14.5039C12.5037 13.9489 12.72 13.4166 13.1047 13.0241C13.4897 12.6317 14.0117 12.4112 14.5559 12.4112C14.7279 12.4105 14.8993 12.4333 15.0652 12.4789L15.1686 12.5015C15.1686 12.509 15.1759 12.509 15.1834 12.509V12.5091C15.5963 12.6467 15.9562 12.9136 16.212 13.2717C16.4678 13.6298 16.6064 14.0609 16.6081 14.5039L16.6082 14.5039ZM14.9252 13.3747H14.925C14.9218 13.1682 14.7585 13.0016 14.556 12.9983C14.3521 12.9983 14.1869 13.1669 14.1869 13.3747V14.2479L13.7439 14.4211C13.5741 14.4838 13.4739 14.6626 13.5068 14.8436C13.5398 15.0246 13.6963 15.1547 13.8768 15.1512C13.922 15.1511 13.9669 15.1434 14.0097 15.1286L14.6888 14.8577C14.8306 14.7994 14.9239 14.6597 14.9251 14.5039L14.9252 13.3747ZM11.8394 15.1286H11.8393C11.8894 15.3943 11.9843 15.649 12.1198 15.8815H5.00372C4.51416 15.8815 4.04477 15.6831 3.69874 15.3302C3.35257 14.9773 3.1582 14.4986 3.1582 13.9995V6.62234H15.5749V11.8615C15.3399 11.7602 15.0908 11.6966 14.8367 11.6733C14.7408 11.6658 14.6521 11.6582 14.5562 11.6582V11.6583C13.8163 11.6588 13.1069 11.9588 12.5838 12.4924C12.0605 13.0259 11.7663 13.7492 11.7658 14.5038C11.7635 14.7145 11.7883 14.9245 11.8396 15.1285L11.8394 15.1286ZM7.71999 8.63225C7.7232 8.83887 7.88657 9.00544 8.08906 9.00874H12.6808C12.7787 9.00874 12.8726 8.96909 12.9418 8.89847C13.011 8.82784 13.05 8.73215 13.05 8.63225C13.05 8.53248 13.011 8.43678 12.9418 8.36615C12.8726 8.29553 12.7787 8.25589 12.6808 8.25589H8.08906C7.88527 8.25589 7.71999 8.42445 7.71999 8.63225ZM7.71999 10.8756C7.71999 10.9753 7.75886 11.0712 7.82812 11.1417C7.89738 11.2123 7.99122 11.2519 8.08906 11.2519H12.6808C12.8847 11.2519 13.05 11.0834 13.05 10.8756C13.05 10.6677 12.8847 10.4992 12.6808 10.4992H8.08906C7.88528 10.4992 7.71999 10.6677 7.71999 10.8756ZM7.71999 13.1188C7.71999 13.2187 7.75886 13.3144 7.82812 13.385C7.89738 13.4556 7.99122 13.4953 8.08906 13.4953H10.9091C11.1129 13.4953 11.2781 13.3267 11.2781 13.1188C11.2781 12.911 11.1128 12.7424 10.9091 12.7424H8.08906C7.88528 12.7424 7.71999 12.911 7.71999 13.1188ZM5.68254 8.63218C5.68576 8.8388 5.84912 9.00538 6.05161 9.00867H6.40601C6.50385 9.00867 6.59783 8.96902 6.66696 8.8984C6.73622 8.82778 6.77509 8.73208 6.77509 8.63218C6.77509 8.53241 6.73621 8.43671 6.66696 8.36609C6.59783 8.29546 6.50385 8.25582 6.40601 8.25582H6.05161C5.84783 8.25582 5.68254 8.42438 5.68254 8.63218ZM5.68254 10.8755C5.68254 10.9753 5.72142 11.0711 5.79067 11.1416C5.85993 11.2122 5.95378 11.2519 6.05162 11.2519H6.40602C6.60981 11.2519 6.77509 11.0833 6.77509 10.8755C6.77509 10.6676 6.6098 10.4992 6.40602 10.4992H6.05162C5.84783 10.4992 5.68254 10.6676 5.68254 10.8755ZM5.68254 13.1187C5.68254 13.2186 5.72142 13.3143 5.79067 13.3849C5.85993 13.4556 5.95378 13.4952 6.05162 13.4952H6.40602C6.50386 13.4952 6.59783 13.4556 6.66696 13.3849C6.73622 13.3143 6.7751 13.2186 6.7751 13.1187C6.7751 13.0189 6.73622 12.9232 6.66696 12.8526C6.59783 12.782 6.50386 12.7424 6.40602 12.7424H6.05162C5.84912 12.7456 5.68574 12.9122 5.68254 13.1187Z" fill="#E7E7E7"/>
</svg>
