<svg width="19" height="19" viewBox="0 0 19 19" fill="none" xmlns="http://www.w3.org/2000/svg">
<g clip-path="url(#clip0_109_1706)">
<path d="M13.9305 7.20092H18.7252V4.97482C18.7252 3.5585 17.5729 2.40625 16.1566 2.40625H3.48495C2.06863 2.40625 0.916382 3.5585 0.916382 4.97482V14.5642C0.916382 15.9805 2.06863 17.1327 3.48495 17.1327H16.1566C17.5729 17.1327 18.7252 15.9805 18.7252 14.5642V12.3381H13.9305C12.5142 12.3381 11.3619 11.1858 11.3619 9.76949C11.3619 8.35317 12.5142 7.20092 13.9305 7.20092Z" fill="#E7E7E7"/>
<path d="M13.9304 8.22803C13.0807 8.22803 12.3893 8.91937 12.3893 9.76918C12.3893 10.619 13.0806 11.3103 13.9304 11.3103H18.7251V8.22806L13.9304 8.22803ZM14.6154 10.2829H13.9304C13.6467 10.2829 13.4167 10.0529 13.4167 9.76918C13.4167 9.4855 13.6467 9.25548 13.9304 9.25548H14.6154C14.8991 9.25548 15.1291 9.4855 15.1291 9.76918C15.1291 10.0529 14.8991 10.2829 14.6154 10.2829Z" fill="#E7E7E7"/>
</g>
<defs>
<clipPath id="clip0_109_1706">
<rect width="17.8088" height="17.8088" fill="white" transform="translate(0.916504 0.865234)"/>
</clipPath>
</defs>
</svg>
