<svg width="64" height="64" viewBox="0 0 64 64" fill="none" xmlns="http://www.w3.org/2000/svg">
<g opacity="0.06">
<rect width="64" height="64" rx="16" fill="#0074D9"/>
</g>
<path fill-rule="evenodd" clip-rule="evenodd" d="M32.3005 22.079H24.4603V19.698H32.3005L31.1582 18.5557C30.6933 18.0908 30.6933 17.337 31.1582 16.8721C31.6231 16.4072 32.3769 16.4072 32.8418 16.8721L36.0164 20.0467C36.4813 20.5116 36.4813 21.2654 36.0164 21.7303L32.8418 24.9049C32.3769 25.3698 31.6231 25.3698 31.1582 24.9049C30.6933 24.44 30.6933 23.6862 31.1582 23.2213L32.3005 22.079ZM45.4439 31.1578L44.3016 32.3002V24.4599H41.9206V32.3002L40.7783 31.1578C40.3134 30.6929 39.5596 30.6929 39.0947 31.1578C38.6298 31.6227 38.6298 32.3765 39.0947 32.8414L42.2693 36.016C42.5018 36.2485 42.8064 36.3647 43.1111 36.3647C43.4158 36.3647 43.7204 36.2485 43.9529 36.016L47.1275 32.8414C47.5924 32.3765 47.5924 31.6227 47.1275 31.1578C46.6626 30.6929 45.9088 30.6929 45.4439 31.1578ZM32.8418 45.4435L31.6995 44.3012H39.5397V41.9203H31.6995L32.8418 40.7779C33.3067 40.313 33.3067 39.5593 32.8418 39.0943C32.3769 38.6294 31.6231 38.6294 31.1582 39.0943L27.9836 42.2689C27.5187 42.7339 27.5187 43.4876 27.9836 43.9525L31.1582 47.1271C31.6231 47.592 32.3769 47.592 32.8418 47.1271C33.3067 46.6622 33.3067 45.9085 32.8418 45.4435ZM18.5561 32.8414L19.6984 31.6991V39.5393H22.0794V31.6991L23.2217 32.8414C23.6866 33.3063 24.4404 33.3063 24.9053 32.8414C25.3702 32.3765 25.3702 31.6227 24.9053 31.1578L21.7307 27.9832C21.2658 27.5183 20.512 27.5183 20.0471 27.9832L16.8725 31.1578C16.4076 31.6227 16.4076 32.3765 16.8725 32.8414C17.3374 33.3063 18.0912 33.3063 18.5561 32.8414Z" fill="#B4CCEF"/>
<path fill-rule="evenodd" clip-rule="evenodd" d="M26.4445 24.0632V17.714C26.4445 16.399 25.3785 15.333 24.0635 15.333H17.7143C16.3994 15.333 15.3334 16.399 15.3334 17.714V24.0632C15.3334 25.3781 16.3994 26.4441 17.7143 26.4441H24.0635C25.3785 26.4441 26.4445 25.3781 26.4445 24.0632ZM24.0635 37.5552H17.7143C16.3994 37.5552 15.3334 38.6212 15.3334 39.9362V46.2854C15.3334 47.6004 16.3994 48.6663 17.7143 48.6663H24.0635C25.3785 48.6663 26.4445 47.6004 26.4445 46.2854V39.9362C26.4445 38.6212 25.3785 37.5552 24.0635 37.5552ZM46.2858 26.4441H39.9365C38.6216 26.4441 37.5556 25.3781 37.5556 24.0632V17.714C37.5556 16.399 38.6216 15.333 39.9365 15.333H46.2858C47.6007 15.333 48.6667 16.399 48.6667 17.714V24.0632C48.6667 25.3781 47.6007 26.4441 46.2858 26.4441ZM37.5556 39.9362V46.2854C37.5556 47.6004 38.6216 48.6663 39.9365 48.6663H46.2858C47.6007 48.6663 48.6667 47.6004 48.6667 46.2854V39.9362C48.6667 38.6212 47.6007 37.5552 46.2858 37.5552H39.9365C38.6216 37.5552 37.5556 38.6212 37.5556 39.9362Z" fill="#0074D9"/>
</svg>
