<svg width="64" height="64" viewBox="0 0 64 64" fill="none" xmlns="http://www.w3.org/2000/svg">
<g opacity="0.06">
<rect width="64" height="64" rx="16" fill="#0074D9"/>
</g>
<path d="M33.6667 23.6663C33.6667 24.5868 32.9205 25.333 32 25.333C31.0796 25.333 30.3334 24.5868 30.3334 23.6663V16.9997C30.3334 16.0792 31.0796 15.333 32 15.333C32.9205 15.333 33.6667 16.0792 33.6667 16.9997V23.6663Z" fill="#B4CCEF"/>
<path fill-rule="evenodd" clip-rule="evenodd" d="M39.1427 48.6667L36.8776 41.4578C36.3677 39.8352 35.1769 38.5566 33.654 38.0048C30.9507 37.0255 28.0262 38.5813 27.1223 41.4578L24.8571 48.6667H17.7323C16.4102 48.6667 15.3334 47.6193 15.3334 46.3211C15.3334 45.9256 15.4356 45.5366 15.6305 45.1904L27.0816 24.8394C28.5701 22.1939 31.974 21.2252 34.6881 22.6698C35.6284 23.1703 36.4024 23.9231 36.918 24.8394L48.3691 45.1904C49.0105 46.3303 48.5802 47.7606 47.4143 48.3812C47.0622 48.5686 46.6679 48.6667 46.2673 48.6667H39.1427Z" fill="#0074D9"/>
<path d="M35.3949 42.0515C35.0334 40.9372 34.1968 40.0669 33.1371 39.6951C31.2716 39.0403 29.2427 40.0859 28.6051 42.0515L27 47H37L35.3949 42.0515Z" fill="#B4CCEF"/>
</svg>
