<svg width="64" height="64" viewBox="0 0 64 64" fill="none" xmlns="http://www.w3.org/2000/svg">
<g opacity="0.06">
<rect width="64" height="64" rx="16" fill="#0074D9"/>
</g>
<path fill-rule="evenodd" clip-rule="evenodd" d="M24.1808 26.9919C26.3351 23.9403 27.6799 20.4387 28.2194 16.4744C28.2708 16.0968 28.5389 15.7828 28.907 15.6692C32.6171 14.5248 34.7263 16.3434 34.6915 20.4902C34.6847 21.2952 34.6475 22.0106 34.5681 23.1049C34.3909 25.5491 34.405 26.2161 34.6796 26.6649C34.9435 27.0964 35.8002 27.2437 37.8265 26.8602C38.4659 26.7392 39.1073 26.6021 39.8177 26.4373C40.1313 26.3646 42.3901 25.8152 42.9675 25.691C44.069 25.4539 44.8593 25.3536 45.5542 25.3961C47.4368 25.5112 48.4358 26.7194 48.6084 29.0341C48.9124 33.1106 47.9731 41.2988 47.036 44.3148C46.0784 47.3967 44.4083 48.5601 40.3996 48.6303C37.8223 48.6755 33.8583 48.6755 28.4891 48.6302C27.1185 48.5985 25.8764 48.3339 24.7715 47.8393C25.0816 47.1992 25.2553 46.4822 25.2553 45.7252V30.0389C25.2553 28.8874 24.8535 27.8286 24.1808 26.9919Z" fill="#0074D9"/>
<path d="M18.31 27.0977C16.666 27.0977 15.3334 28.4145 15.3334 30.0388V45.7251C15.3334 47.3495 16.666 48.6663 18.31 48.6663H20.2944C21.9383 48.6663 23.271 47.3495 23.271 45.7251V30.0388C23.271 28.4145 21.9383 27.0977 20.2944 27.0977H18.31Z" fill="#B4CCEF"/>
</svg>
