<svg width="165" height="54" viewBox="0 0 165 54" fill="none" xmlns="http://www.w3.org/2000/svg">
<g clip-path="url(#clip0_109_1360)">
<g clip-path="url(#clip1_109_1360)">
<g clip-path="url(#clip2_109_1360)">
<g clip-path="url(#clip3_109_1360)">
<g clip-path="url(#clip4_109_1360)">
<g clip-path="url(#clip5_109_1360)">
<g clip-path="url(#clip6_109_1360)">
<g clip-path="url(#clip7_109_1360)">
<path d="M77.4674 37.2786C75.5609 37.2786 73.8641 36.8532 72.377 36.0023C70.8899 35.1476 69.7232 33.9522 68.8767 32.4161C68.0264 30.8762 67.6012 29.0709 67.6012 27.0002C67.6012 24.9294 68.0264 23.1241 68.8767 21.5842C69.7232 20.0443 70.8899 18.8489 72.377 17.998C73.8641 17.1471 75.5609 16.7217 77.4674 16.7217C79.374 16.7217 81.0708 17.1471 82.5579 17.998C84.045 18.8489 85.2117 20.0443 86.0582 21.5842C86.9085 23.1241 87.3337 24.9294 87.3337 27.0002C87.3337 29.0709 86.9085 30.8762 86.0582 32.4161C85.2117 33.9522 84.045 35.1476 82.5579 36.0023C81.0708 36.8532 79.374 37.2786 77.4674 37.2786ZM77.4674 33.7772C78.802 33.7772 79.9173 33.4854 80.8134 32.9018C81.7095 32.3182 82.3825 31.5163 82.8324 30.496C83.2785 29.4719 83.5016 28.3066 83.5016 27.0002C83.5016 25.6899 83.2785 24.5247 82.8324 23.5043C82.3825 22.484 81.7095 21.6821 80.8134 21.0985C79.9173 20.5149 78.802 20.2231 77.4674 20.2231C76.1329 20.2231 75.0176 20.5149 74.1215 21.0985C73.2254 21.6821 72.5543 22.484 72.1082 23.5043C71.6583 24.5247 71.4333 25.6899 71.4333 27.0002C71.4333 28.3066 71.6583 29.4719 72.1082 30.496C72.5543 31.5163 73.2254 32.3182 74.1215 32.9018C75.0176 33.4854 76.1329 33.7772 77.4674 33.7772ZM94.1972 36.8833H90.5367V17.117H94.14L102.691 29.8804V17.117H106.351V36.8833H103.348L94.1972 23.3293V36.8833ZM116.555 37.2786C115.747 37.2786 114.913 37.2014 114.056 37.0471C113.198 36.8889 112.403 36.7007 111.67 36.4823C110.935 36.2602 110.353 36.0456 109.926 35.8385L110.355 31.9982C111.022 32.3182 111.716 32.6138 112.437 32.8849C113.165 33.1597 113.911 33.3818 114.673 33.5513C115.436 33.7207 116.206 33.8054 116.984 33.8054C117.956 33.8054 118.738 33.6172 119.329 33.2407C119.924 32.8642 120.221 32.29 120.221 31.5182C120.221 30.9233 120.053 30.4451 119.718 30.0837C119.386 29.7223 118.875 29.3985 118.185 29.1123C117.499 28.8224 116.622 28.4949 115.554 28.1297C114.49 27.7607 113.533 27.3447 112.683 26.8816C111.833 26.4147 111.161 25.8236 110.67 25.1082C110.174 24.3929 109.926 23.4799 109.926 22.3692C109.926 21.2773 110.197 20.306 110.738 19.4551C111.28 18.6004 112.092 17.9321 113.175 17.4502C114.258 16.9645 115.606 16.7217 117.218 16.7217C118.435 16.7217 119.596 16.8553 120.702 17.1227C121.811 17.3937 122.757 17.6836 123.539 17.9924L123.161 21.6915C122.036 21.1907 120.982 20.8124 119.998 20.5563C119.011 20.2966 118.006 20.1667 116.984 20.1667C115.92 20.1667 115.096 20.3399 114.513 20.6862C113.933 21.0364 113.644 21.5597 113.644 22.2562C113.644 22.8097 113.804 23.2559 114.124 23.5947C114.448 23.9336 114.912 24.2235 115.514 24.4644C116.113 24.7054 116.833 24.9576 117.676 25.2212C119.121 25.673 120.338 26.17 121.325 26.7121C122.313 27.2543 123.056 27.9075 123.556 28.6718C124.055 29.4399 124.305 30.3887 124.305 31.5182C124.305 32.0829 124.215 32.6966 124.036 33.3593C123.853 34.0219 123.497 34.6506 122.967 35.2455C122.429 35.8366 121.649 36.3242 120.627 36.7082C119.602 37.0885 118.244 37.2786 116.555 37.2786ZM130.997 36.8833H127.336V17.117H130.997V36.8833ZM142.951 36.8833H139.29V20.6185H133.628V17.117H148.613V20.6185H142.951V36.8833ZM164.342 36.8833H151.244V17.117H164.056V20.6185H154.99V24.8259H162.026V28.3273H154.99V33.3818H164.342V36.8833Z" fill="white"/>
</g>
</g>
</g>
</g>
<g clip-path="url(#clip8_109_1360)">
<g clip-path="url(#clip9_109_1360)">
<path d="M28.7245 53.909C14.4583 53.909 2.85132 42.4488 2.85132 28.3622C2.85132 21.3219 5.83715 14.5252 11.0442 9.71161C12.3678 8.49322 14.4358 8.56127 15.6731 9.86175C16.907 11.1655 16.8397 13.2107 15.5194 14.4307C11.5714 18.0794 9.39784 23.0269 9.39784 28.3628C9.39784 38.886 18.0671 47.446 28.7245 47.446C39.382 47.446 48.0512 38.886 48.0512 28.3628C48.0512 23.1468 45.9575 18.2738 42.1567 14.644C40.8588 13.4035 40.8237 11.3566 42.0801 10.0735C43.3365 8.79512 45.4078 8.75407 46.709 9.99784C51.7946 14.8568 54.5983 21.3797 54.5983 28.3628C54.5977 42.4488 42.9908 53.909 28.7245 53.909Z" fill="#2ECC40"/>
<path d="M28.7246 27.7368C26.9153 27.7368 25.451 26.2894 25.451 24.5045V3.32311C25.451 1.5382 26.9153 0.0908203 28.7246 0.0908203C30.5339 0.0908203 31.9981 1.5382 31.9981 3.32311V24.505C31.9976 26.2899 30.5339 27.7368 28.7246 27.7368Z" fill="#2ECC40"/>
</g>
</g>
</g>
</g>
</g>
</g>
<defs>
<clipPath id="clip0_109_1360">
<rect width="165" height="54" fill="white"/>
</clipPath>
<clipPath id="clip1_109_1360">
<rect width="165.093" height="54" fill="white" transform="translate(-0.0930176 -0.0913086)"/>
</clipPath>
<clipPath id="clip2_109_1360">
<rect width="163.09" height="53.8181" fill="white" transform="translate(2.85132 0.0908203)"/>
</clipPath>
<clipPath id="clip3_109_1360">
<rect width="163.09" height="53.8181" fill="white" transform="translate(2.85132 0.0908203)"/>
</clipPath>
<clipPath id="clip4_109_1360">
<rect width="96.7465" height="20.5569" fill="white" transform="translate(67.5984 16.7217)"/>
</clipPath>
<clipPath id="clip5_109_1360">
<rect width="96.7465" height="20.5569" fill="white" transform="translate(67.5984 16.7217)"/>
</clipPath>
<clipPath id="clip6_109_1360">
<rect width="96.7465" height="20.5569" fill="white" transform="translate(67.5984 16.7217)"/>
</clipPath>
<clipPath id="clip7_109_1360">
<rect width="96.7465" height="20.5569" fill="white" transform="translate(67.5984 16.7217)"/>
</clipPath>
<clipPath id="clip8_109_1360">
<rect width="51.747" height="53.8181" fill="white" transform="translate(2.85132 0.0908203)"/>
</clipPath>
<clipPath id="clip9_109_1360">
<rect width="51.747" height="53.8181" fill="white" transform="translate(2.85132 0.0908203)"/>
</clipPath>
</defs>
</svg>
