<svg width="28" height="28" viewBox="0 0 28 28" fill="none" xmlns="http://www.w3.org/2000/svg">
<path d="M6.30499 23.3382C8.45785 25.0697 11.1373 26.0144 13.9 26.0161C16.6625 26.0269 19.3438 25.0819 21.489 23.3414C21.9743 22.9502 22.4288 22.5224 22.8487 22.0618C24.4779 20.2695 25.5313 18.0293 25.8725 15.6315C26.2138 13.2336 25.8271 10.7885 24.7627 8.61288C23.6983 6.43728 22.005 4.63144 19.9024 3.42927C17.7998 2.2271 15.3846 1.684 12.9697 1.87031C10.5549 2.05663 8.2516 2.96379 6.35826 4.47427C4.46493 5.98475 3.06877 8.02896 2.35065 10.3421C1.63253 12.6552 1.62554 15.1307 2.33058 17.4479C3.03562 19.765 4.42021 21.8171 6.30499 23.3382ZM13.8997 6.0451C14.6445 6.0451 15.3727 6.26597 15.992 6.67979C16.6113 7.0936 17.094 7.68177 17.379 8.36992C17.6641 9.05806 17.7387 9.81528 17.5933 10.5458C17.448 11.2763 17.0894 11.9474 16.5627 12.4741C16.036 13.0008 15.3649 13.3594 14.6344 13.5047C13.9039 13.6501 13.1467 13.5755 12.4585 13.2904C11.7704 13.0054 11.1822 12.5227 10.7684 11.9034C10.3546 11.2841 10.1337 10.5559 10.1337 9.8111C10.1337 8.8123 10.5305 7.8544 11.2367 7.14814C11.943 6.44188 12.9009 6.0451 13.8997 6.0451ZM13.9 15.681C19.3424 15.681 21.7424 17.6986 22.1831 20.3454C22.0156 20.5606 21.8412 20.7714 21.6561 20.9745C21.2918 21.3739 20.8975 21.745 20.4766 22.0844C18.6118 23.5849 16.29 24.4027 13.8965 24.4021C11.5029 24.4016 9.1815 23.5826 7.31741 22.0812C6.89833 21.7429 6.50592 21.3728 6.14368 20.9742C5.95855 20.7715 5.78425 20.561 5.61678 20.346C6.05716 17.699 8.45719 15.681 13.9 15.681Z" fill="#90A0B7"/>
</svg>
