<svg width="19" height="19" viewBox="0 0 19 19" fill="none" xmlns="http://www.w3.org/2000/svg">
<g clip-path="url(#clip0_109_1691)">
<path d="M17.53 4.43079H12.0696L10.5829 2.00299C10.5366 1.92749 10.4718 1.86512 10.3945 1.82185C10.3173 1.77858 10.2302 1.75586 10.1417 1.75586H6.02961C5.30197 1.75586 4.70996 2.34787 4.70996 3.07555V13.2387C4.70996 13.9664 5.30197 14.5584 6.02961 14.5584H17.53C18.2577 14.5584 18.8497 13.9664 18.8497 13.2387V5.75051C18.8497 5.0228 18.2577 4.43079 17.53 4.43079Z" fill="#E7E7E7"/>
<path d="M3.67536 13.2389V5.33496H2.23607C1.50839 5.33496 0.916382 5.92697 0.916382 6.65465V16.8178C0.916382 17.5455 1.50839 18.1375 2.23607 18.1375H13.7365C14.4642 18.1375 15.0562 17.5455 15.0562 16.8178V15.5931H6.02962C4.73149 15.5932 3.67536 14.537 3.67536 13.2389Z" fill="#E7E7E7"/>
</g>
<defs>
<clipPath id="clip0_109_1691">
<rect width="17.9333" height="17.9333" fill="white" transform="translate(0.916626 0.97998)"/>
</clipPath>
</defs>
</svg>
