<svg width="19" height="19" viewBox="0 0 19 19" fill="none" xmlns="http://www.w3.org/2000/svg">
<g clip-path="url(#clip0_109_1699)">
<path d="M15.1138 1.63818H4.65271C4.47366 1.64025 4.3013 1.70654 4.16701 1.82499C4.69989 2.01247 5.16872 2.34712 5.51918 2.79015C5.86964 3.23319 6.08737 3.76646 6.14715 4.32818C6.15858 4.42749 6.15858 4.52777 6.14715 4.62707V17.3298C6.1468 17.4728 6.18744 17.6128 6.26425 17.7333C6.34107 17.8538 6.45084 17.9498 6.58054 18.0098C6.71055 18.0697 6.85501 18.0909 6.99674 18.0711C7.13848 18.0512 7.27153 17.991 7.38007 17.8977L9.50965 16.0745L11.6392 17.8977C11.7746 18.0135 11.9468 18.0771 12.1249 18.0771C12.303 18.0771 12.4753 18.0135 12.6106 17.8977L14.7402 16.0745L16.8698 17.8977C17.0051 18.0135 17.1774 18.0771 17.3555 18.0771C17.4636 18.0763 17.5704 18.0534 17.6693 18.0098C17.799 17.9498 17.9088 17.8538 17.9856 17.7333C18.0624 17.6128 18.1031 17.4728 18.1027 17.3298V4.62707C18.1027 3.83437 17.7878 3.07413 17.2273 2.51361C16.6668 1.95308 15.9065 1.63818 15.1138 1.63818ZM14.3666 12.0993H9.88326C9.68509 12.0993 9.49503 12.0206 9.3549 11.8804C9.21477 11.7403 9.13604 11.5502 9.13604 11.3521C9.13604 11.1539 9.21477 10.9638 9.3549 10.8237C9.49503 10.6836 9.68509 10.6048 9.88326 10.6048H14.3666C14.5648 10.6048 14.7548 10.6836 14.895 10.8237C15.0351 10.9638 15.1138 11.1539 15.1138 11.3521C15.1138 11.5502 15.0351 11.7403 14.895 11.8804C14.7548 12.0206 14.5648 12.0993 14.3666 12.0993ZM14.3666 9.1104H9.88326C9.68509 9.1104 9.49503 9.03168 9.3549 8.89155C9.21477 8.75142 9.13604 8.56136 9.13604 8.36318C9.13604 8.16501 9.21477 7.97495 9.3549 7.83482C9.49503 7.69469 9.68509 7.61596 9.88326 7.61596H14.3666C14.5648 7.61596 14.7548 7.69469 14.895 7.83482C15.0351 7.97495 15.1138 8.16501 15.1138 8.36318C15.1138 8.56136 15.0351 8.75142 14.895 8.89155C14.7548 9.03168 14.5648 9.1104 14.3666 9.1104ZM14.3666 6.12152H9.88326C9.68509 6.12152 9.49503 6.04279 9.3549 5.90266C9.21477 5.76253 9.13604 5.57247 9.13604 5.37429C9.13604 5.17612 9.21477 4.98606 9.3549 4.84593C9.49503 4.7058 9.68509 4.62707 9.88326 4.62707H14.3666C14.5648 4.62707 14.7548 4.7058 14.895 4.84593C15.0351 4.98606 15.1138 5.17612 15.1138 5.37429C15.1138 5.57247 15.0351 5.76253 14.895 5.90266C14.7548 6.04279 14.5648 6.12152 14.3666 6.12152ZM4.65271 4.62707V10.6048H2.41104C2.21286 10.6048 2.02281 10.5261 1.88267 10.386C1.74254 10.2459 1.66382 10.0558 1.66382 9.85763V4.32818C1.70345 3.93183 1.89892 3.56746 2.2072 3.31522C2.51549 3.06299 2.91136 2.94355 3.30771 2.98318C3.70406 3.02282 4.06843 3.21828 4.32067 3.52657C4.5729 3.83486 4.69234 4.23072 4.65271 4.62707Z" fill="#E7E7E7"/>
</g>
<defs>
<clipPath id="clip0_109_1699">
<rect width="17.9333" height="17.9333" fill="white" transform="translate(0.916626 0.891113)"/>
</clipPath>
</defs>
</svg>
